<?xml version="1.0" encoding="UTF-8"?>
<svg width="24px" height="24px" viewBox="0 0 24 24" version="1.1" xmlns="http://www.w3.org/2000/svg">
    <g stroke="none" stroke-width="1" fill="none" fill-rule="evenodd">
        <path d="M2,16 L22,16 L22,17 C22,18.6568542 20.6568542,20 19,20 L5,20 C3.34314575,20 2,18.6568542 2,17 L2,16 Z" fill="#9d1c20"/>
        <path d="M2,13 L22,13 L22,14 C22,14.5522847 21.5522847,15 21,15 L3,15 C2.44771525,15 2,14.5522847 2,14 L2,13 Z" fill="#F6B319"/>
        <path d="M3,4 L21,4 C21.5522847,4 22,4.44771525 22,5 L22,6 C22,7.65685425 20.6568542,9 19,9 L5,9 C3.34314575,9 2,7.65685425 2,6 L2,5 C2,4.44771525 2.44771525,4 3,4 Z" fill="#9d1c20"/>
        <path d="M4,9 L20,9 C20.5522847,9 21,9.44771525 21,10 L21,11 C21,11.5522847 20.5522847,12 20,12 L4,12 C3.44771525,12 3,11.5522847 3,11 L3,10 C3,9.44771525 3.44771525,9 4,9 Z" fill="#333333"/>
    </g>
</svg>
