<?xml version="1.0" encoding="UTF-8"?>
<svg width="24px" height="24px" viewBox="0 0 24 24" version="1.1" xmlns="http://www.w3.org/2000/svg">
    <g stroke="none" stroke-width="1" fill="none" fill-rule="evenodd">
        <path d="M5,6 L19,6 C19.5522847,6 20,6.44771525 20,7 L20,7 C20,7.55228475 19.5522847,8 19,8 L5,8 C4.44771525,8 4,7.55228475 4,7 L4,7 C4,6.44771525 4.44771525,6 5,6 Z" fill="#9d1c20"/>
        <path d="M11,5 L13,5 C13.5522847,5 14,5.44771525 14,6 L14,19 C14,19.5522847 13.5522847,20 13,20 L11,20 C10.4477153,20 10,19.5522847 10,19 L10,6 C10,5.44771525 10.4477153,5 11,5 Z" fill="#F6B319"/>
        <path d="M6,8 L18,8 L18,18 C18,19.1045695 17.1045695,20 16,20 L8,20 C6.8954305,20 6,19.1045695 6,18 L6,8 Z" fill="#ffffff"/>
        <path d="M9,11 L15,11 C15.5522847,11 16,11.4477153 16,12 L16,12 C16,12.5522847 15.5522847,13 15,13 L9,13 C8.44771525,13 8,12.5522847 8,12 L8,12 C8,11.4477153 8.44771525,11 9,11 Z" fill="#9d1c20"/>
        <path d="M9,15 L15,15 C15.5522847,15 16,15.4477153 16,16 L16,16 C16,16.5522847 15.5522847,17 15,17 L9,17 C8.44771525,17 8,16.5522847 8,16 L8,16 C8,15.4477153 8.44771525,15 9,15 Z" fill="#9d1c20"/>
    </g>
</svg>
