<?xml version="1.0" encoding="UTF-8"?>
<svg width="24px" height="24px" viewBox="0 0 24 24" version="1.1" xmlns="http://www.w3.org/2000/svg">
    <g stroke="none" stroke-width="1" fill="none" fill-rule="evenodd">
        <path d="M7,4 L17,4 C18.1045695,4 19,4.8954305 19,6 L19,16 C19,17.1045695 18.1045695,18 17,18 L7,18 C5.8954305,18 5,17.1045695 5,16 L5,6 C5,4.8954305 5.8954305,4 7,4 Z" fill="#9d1c20"/>
        <path d="M8,6 L16,6 C16.5522847,6 17,6.44771525 17,7 L17,15 C17,15.5522847 16.5522847,16 16,16 L8,16 C7.44771525,16 7,15.5522847 7,15 L7,7 C7,6.44771525 7.44771525,6 8,6 Z" fill="#ffffff"/>
        <path d="M9,8 L15,8 C15.5522847,8 16,8.44771525 16,9 L16,9 C16,9.55228475 15.5522847,10 15,10 L9,10 C8.44771525,10 8,9.55228475 8,9 L8,9 C8,8.44771525 8.44771525,8 9,8 Z" fill="#87CEFA"/>
        <path d="M10,11 L14,11 C14.5522847,11 15,11.4477153 15,12 L15,12 C15,12.5522847 14.5522847,13 14,13 L10,13 C9.44771525,13 9,12.5522847 9,12 L9,12 C9,11.4477153 9.44771525,11 10,11 Z" fill="#87CEFA"/>
        <path d="M12,18 L12,20 C12,20.5522847 11.5522847,21 11,21 L11,21 C10.4477153,21 10,20.5522847 10,20 L10,18 L12,18 Z" fill="#9d1c20"/>
        <path d="M14,18 L14,20 C14,20.5522847 13.5522847,21 13,21 L13,21 C12.4477153,21 12,20.5522847 12,20 L12,18 L14,18 Z" fill="#9d1c20"/>
    </g>
</svg>
