<?xml version="1.0" encoding="UTF-8"?>
<svg width="24px" height="24px" viewBox="0 0 24 24" version="1.1" xmlns="http://www.w3.org/2000/svg">
    <g stroke="none" stroke-width="1" fill="none" fill-rule="evenodd">
        <path d="M5,8 L19,8 C19.5522847,8 20,8.44771525 20,9 L20,11 C20,13.209139 18.209139,15 16,15 L8,15 C5.790861,15 4,13.209139 4,11 L4,9 C4,8.44771525 4.44771525,8 5,8 Z" fill="#F6B319"/>
        <path d="M7,5 L17,5 C17.5522847,5 18,5.44771525 18,6 L18,8 L6,8 L6,6 C6,5.44771525 6.44771525,5 7,5 Z" fill="#9d1c20"/>
        <path d="M9,15 L15,15 L15,18 C15,18.5522847 14.5522847,19 14,19 L10,19 C9.44771525,19 9,18.5522847 9,18 L9,15 Z" fill="#ffffff"/>
        <circle cx="12" cy="11" r="2" fill="#ffffff"/>
        <circle cx="8" cy="10" r="1" fill="#ffffff"/>
        <circle cx="16" cy="10" r="1" fill="#ffffff"/>
    </g>
</svg>
