<?xml version="1.0" encoding="UTF-8"?>
<svg width="24px" height="24px" viewBox="0 0 24 24" version="1.1" xmlns="http://www.w3.org/2000/svg">
    <g stroke="none" stroke-width="1" fill="none" fill-rule="evenodd">
        <path d="M6,5 L18,5 C19.1045695,5 20,5.8954305 20,7 L20,17 C20,18.1045695 19.1045695,19 18,19 L6,19 C4.8954305,19 4,18.1045695 4,17 L4,7 C4,5.8954305 4.8954305,5 6,5 Z" fill="#F6B319"/>
        <path d="M8,8 L16,8 C16.5522847,8 17,8.44771525 17,9 L17,15 C17,15.5522847 16.5522847,16 16,16 L8,16 C7.44771525,16 7,15.5522847 7,15 L7,9 C7,8.44771525 7.44771525,8 8,8 Z" fill="#9d1c20"/>
        <circle cx="12" cy="12" r="2" fill="#ffffff"/>
    </g>
</svg>
