<?xml version="1.0" encoding="UTF-8"?>
<svg width="24px" height="24px" viewBox="0 0 24 24" version="1.1" xmlns="http://www.w3.org/2000/svg">
    <g stroke="none" stroke-width="1" fill="none" fill-rule="evenodd">
        <path d="M3,5 L21,5 C21.5522847,5 22,5.44771525 22,6 L22,18 C22,18.5522847 21.5522847,19 21,19 L3,19 C2.44771525,19 2,18.5522847 2,18 L2,6 C2,5.44771525 2.44771525,5 3,5 Z" fill="#F6B319"/>
        <path d="M5,7 L19,7 C19.5522847,7 20,7.44771525 20,8 L20,16 C20,16.5522847 19.5522847,17 19,17 L5,17 C4.44771525,17 4,16.5522847 4,16 L4,8 C4,7.44771525 4.44771525,7 5,7 Z" fill="#9d1c20"/>
        <path d="M8,10 L16,10 C16.5522847,10 17,10.4477153 17,11 L17,13 C17,13.5522847 16.5522847,14 16,14 L8,14 C7.44771525,14 7,13.5522847 7,13 L7,11 C7,10.4477153 7.44771525,10 8,10 Z" fill="#ffffff"/>
    </g>
</svg>
