<?xml version="1.0" encoding="UTF-8"?>
<svg width="24px" height="24px" viewBox="0 0 24 24" version="1.1" xmlns="http://www.w3.org/2000/svg">
    <g stroke="none" stroke-width="1" fill="none" fill-rule="evenodd">
        <circle cx="12" cy="12" r="7" fill="#F6B319"/>
        <path d="M12,5 C15.866,5 19,8.134 19,12 C19,15.866 15.866,19 12,19 C8.134,19 5,15.866 5,12 C5,8.134 8.134,5 12,5 Z M12,7 C9.23857625,7 7,9.23857625 7,12 C7,14.7614237 9.23857625,17 12,17 C14.7614237,17 17,14.7614237 17,12 C17,9.23857625 14.7614237,7 12,7 Z" fill="#9d1c20"/>
        <path d="M12,7 C14.7614237,7 17,9.23857625 17,12 L7,12 C7,9.23857625 9.23857625,7 12,7 Z" fill="#9d1c20"/>
    </g>
</svg>
