<?xml version="1.0" encoding="UTF-8"?>
<svg width="24px" height="24px" viewBox="0 0 24 24" version="1.1" xmlns="http://www.w3.org/2000/svg">
    <g stroke="none" stroke-width="1" fill="none" fill-rule="evenodd">
        <path d="M4,6 L8,6 C8.55228475,6 9,6.44771525 9,7 L9,17 C9,17.5522847 8.55228475,18 8,18 L4,18 C3.44771525,18 3,17.5522847 3,17 L3,7 C3,6.44771525 3.44771525,6 4,6 Z" fill="#F6B319"/>
        <path d="M10,10 L14,10 C14.5522847,10 15,10.4477153 15,11 L15,17 C15,17.5522847 14.5522847,18 14,18 L10,18 C9.44771525,18 9,17.5522847 9,17 L9,11 C9,10.4477153 9.44771525,10 10,10 Z" fill="#9d1c20"/>
        <path d="M16,8 L20,8 C20.5522847,8 21,8.44771525 21,9 L21,17 C21,17.5522847 20.5522847,18 20,18 L16,18 C15.4477153,18 15,17.5522847 15,17 L15,9 C15,8.44771525 15.4477153,8 16,8 Z" fill="#333333"/>
    </g>
</svg>
