<?xml version="1.0" encoding="UTF-8"?>
<svg width="24px" height="24px" viewBox="0 0 24 24" version="1.1" xmlns="http://www.w3.org/2000/svg">
    <g stroke="none" stroke-width="1" fill="none" fill-rule="evenodd">
        <path d="M3,6 L21,6 C21.5522847,6 22,6.44771525 22,7 L22,17 C22,17.5522847 21.5522847,18 21,18 L3,18 C2.44771525,18 2,17.5522847 2,17 L2,7 C2,6.44771525 2.44771525,6 3,6 Z" fill="#F6B319"/>
        <path d="M4,8 C4,8 6,10 12,10 C18,10 20,8 20,8 L20,16 C20,16 18,14 12,14 C6,14 4,16 4,16 L4,8 Z" fill="#9d1c20"/>
    </g>
</svg>
