<svg width="200" height="59" viewBox="0 0 200 59" fill="none" xmlns="http://www.w3.org/2000/svg">
<g filter="url(#filter0_d_341_334)">
<rect x="4" y="0.47998" width="192" height="50" rx="6.4" fill="#970F2C"/>
<rect x="4.96" y="1.43998" width="190.08" height="48.08" rx="5.44" stroke="black" stroke-width="1.92"/>
</g>
<g filter="url(#filter1_d_341_334)">
<path d="M40.1638 17.6801V30.9701C40.1638 31.3501 40.2238 31.6001 40.3438 31.7201C40.4638 31.8401 40.7138 31.9001 41.0938 31.9001H41.9638V33.6701H40.4638C39.6638 33.6701 39.0638 33.4801 38.6638 33.1001C38.2838 32.7001 38.0938 32.1001 38.0938 31.3001V17.3501C38.0938 16.5501 38.2838 15.9601 38.6638 15.5801C39.0638 15.1801 39.6638 14.9801 40.4638 14.9801H42.1738V16.7501H41.0938C40.7138 16.7501 40.4638 16.8101 40.3438 16.9301C40.2238 17.0301 40.1638 17.2801 40.1638 17.6801ZM45.7438 24.2501V26.0201H42.1738V24.2501H45.7438ZM43.6738 20.2001V17.6801C43.6738 17.2801 43.6138 17.0301 43.4938 16.9301C43.3938 16.8101 43.1438 16.7501 42.7438 16.7501H41.7238V14.9801H43.3738C44.1738 14.9801 44.7638 15.1801 45.1438 15.5801C45.5438 15.9601 45.7438 16.5501 45.7438 17.3501V20.2001H43.6738ZM43.6738 30.9701V25.4501H45.7438V31.3001C45.7438 32.1001 45.5438 32.7001 45.1438 33.1001C44.7638 33.4801 44.1738 33.6701 43.3738 33.6701H41.7238V31.9001H42.7438C43.1438 31.9001 43.3938 31.8401 43.4938 31.7201C43.6138 31.6001 43.6738 31.3501 43.6738 30.9701ZM48.732 14.9801H50.802V33.6401H48.732V14.9801ZM54.822 23.0501V24.8201H50.052V23.0501H54.822ZM55.722 14.9801V16.7501H50.052V14.9801H55.722ZM55.932 31.8701V33.6401H50.052V31.8701H55.932ZM59.6949 14.9801H61.7349V33.6401H59.6949V14.9801ZM64.7349 14.9801V16.7501H56.6949V14.9801H64.7349ZM76.651 21.7301V17.6801C76.651 17.2801 76.591 17.0301 76.471 16.9301C76.371 16.8101 76.121 16.7501 75.721 16.7501H71.611V14.9801H76.351C77.151 14.9801 77.741 15.1801 78.121 15.5801C78.521 15.9601 78.721 16.5501 78.721 17.3501V21.7301H76.651ZM76.651 30.9401V20.9801H78.721V31.2701C78.721 32.0701 78.521 32.6701 78.121 33.0701C77.741 33.4501 77.151 33.6401 76.351 33.6401H71.611V31.8701H75.721C76.121 31.8701 76.371 31.8101 76.471 31.6901C76.591 31.5701 76.651 31.3201 76.651 30.9401ZM70.441 14.9801H72.511V33.6401H70.441V14.9801ZM82.1668 14.9801H84.2068V33.6401H82.1668V14.9801ZM93.5741 23.1401V17.6801C93.5741 17.2801 93.5141 17.0301 93.3941 16.9301C93.2941 16.8101 93.0441 16.7501 92.6441 16.7501H87.8141V14.9801H93.2441C94.0441 14.9801 94.6341 15.1801 95.0141 15.5801C95.4141 15.9601 95.6141 16.5501 95.6141 17.3501V23.4701C95.6141 24.2701 95.4141 24.8701 95.0141 25.2701C94.6341 25.6501 94.0441 25.8401 93.2441 25.8401H89.0441V24.0701H92.6441C93.0441 24.0701 93.2941 24.0101 93.3941 23.8901C93.5141 23.7701 93.5741 23.5201 93.5741 23.1401ZM87.8141 14.9801H89.8541V33.6401H87.8141V14.9801ZM91.3541 25.0601H93.4841L96.5741 33.6401H94.3541L91.3541 25.0601ZM98.7418 14.9801H100.812V33.6401H98.7418V14.9801ZM104.832 23.0501V24.8201H100.062V23.0501H104.832ZM105.732 14.9801V16.7501H100.062V14.9801H105.732ZM105.942 31.8701V33.6401H100.062V31.8701H105.942ZM110.125 17.6801V30.9701C110.125 31.3501 110.185 31.6001 110.305 31.7201C110.425 31.8401 110.675 31.9001 111.055 31.9001H111.925V33.6701H110.425C109.625 33.6701 109.025 33.4801 108.625 33.1001C108.245 32.7001 108.055 32.1001 108.055 31.3001V17.3501C108.055 16.5501 108.245 15.9601 108.625 15.5801C109.025 15.1801 109.625 14.9801 110.425 14.9801H112.135V16.7501H111.055C110.675 16.7501 110.425 16.8101 110.305 16.9301C110.185 17.0301 110.125 17.2801 110.125 17.6801ZM113.635 20.5001V17.6801C113.635 17.2801 113.575 17.0301 113.455 16.9301C113.355 16.8101 113.105 16.7501 112.705 16.7501H111.685V14.9801H113.335C114.135 14.9801 114.725 15.1801 115.105 15.5801C115.505 15.9601 115.705 16.5501 115.705 17.3501V20.5001H113.635ZM113.635 30.9701V28.1501H115.705V31.3001C115.705 32.1001 115.505 32.7001 115.105 33.1001C114.725 33.4801 114.135 33.6701 113.335 33.6701H111.685V31.9001H112.705C113.105 31.9001 113.355 31.8401 113.455 31.7201C113.575 31.6001 113.635 31.3501 113.635 30.9701ZM120.046 14.9801H122.086V33.6401H120.046V14.9801ZM125.086 14.9801V16.7501H117.046V14.9801H125.086ZM127.196 14.9801H129.236V33.6401H127.196V14.9801ZM138.453 29.4101V17.6801C138.453 17.2801 138.393 17.0301 138.273 16.9301C138.173 16.8101 137.923 16.7501 137.523 16.7501H136.503V14.9801H138.123C138.923 14.9801 139.513 15.1801 139.893 15.5801C140.293 15.9601 140.493 16.5501 140.493 17.3501V29.4101H138.453ZM138.453 30.9401V27.9101H140.493V31.2701C140.493 32.0701 140.293 32.6701 139.893 33.0701C139.513 33.4501 138.923 33.6401 138.123 33.6401H136.293V31.8701H137.523C137.923 31.8701 138.173 31.8101 138.273 31.6901C138.393 31.5701 138.453 31.3201 138.453 30.9401ZM134.733 17.6801V29.4401H132.693V17.3501C132.693 16.5501 132.883 15.9601 133.263 15.5801C133.663 15.1801 134.263 14.9801 135.063 14.9801H136.683V16.7501H135.663C135.283 16.7501 135.033 16.8101 134.913 16.9301C134.793 17.0301 134.733 17.2801 134.733 17.6801ZM134.733 27.6701V30.9401C134.733 31.3201 134.793 31.5701 134.913 31.6901C135.033 31.8101 135.283 31.8701 135.663 31.8701H136.593V33.6401H135.063C134.263 33.6401 133.663 33.4501 133.263 33.0701C132.883 32.6701 132.693 32.0701 132.693 31.2701V27.6701H134.733ZM149.774 14.9801H151.664V33.6401H149.414L145.544 19.1801V33.6401H143.654V14.9801H146.054L149.774 28.9301V14.9801ZM159.853 30.9401V25.8401C159.853 25.4401 159.793 25.1901 159.673 25.0901C159.573 24.9701 159.323 24.9101 158.923 24.9101H156.883C156.083 24.9101 155.483 24.7201 155.083 24.3401C154.703 23.9401 154.513 23.3401 154.513 22.5401V17.3501C154.513 16.5501 154.703 15.9601 155.083 15.5801C155.483 15.1801 156.083 14.9801 156.883 14.9801H159.523C160.323 14.9801 160.913 15.1801 161.293 15.5801C161.693 15.9601 161.893 16.5501 161.893 17.3501V20.2301H159.823V17.6801C159.823 17.2801 159.763 17.0301 159.643 16.9301C159.543 16.8101 159.293 16.7501 158.893 16.7501H157.513C157.133 16.7501 156.883 16.8101 156.763 16.9301C156.643 17.0301 156.583 17.2801 156.583 17.6801V22.2101C156.583 22.5901 156.643 22.8401 156.763 22.9601C156.883 23.0801 157.133 23.1401 157.513 23.1401H159.553C160.353 23.1401 160.943 23.3401 161.323 23.7401C161.723 24.1201 161.923 24.7101 161.923 25.5101V31.2701C161.923 32.0701 161.723 32.6701 161.323 33.0701C160.943 33.4501 160.353 33.6401 159.553 33.6401H156.943C156.143 33.6401 155.543 33.4501 155.143 33.0701C154.763 32.6701 154.573 32.0701 154.573 31.2701V28.3901H156.643V30.9401C156.643 31.3201 156.703 31.5701 156.823 31.6901C156.943 31.8101 157.193 31.8701 157.573 31.8701H158.923C159.323 31.8701 159.573 31.8101 159.673 31.6901C159.793 31.5701 159.853 31.3201 159.853 30.9401Z" fill="white"/>
</g>
<defs>
<filter id="filter0_d_341_334" x="0" y="0.47998" width="200" height="58" filterUnits="userSpaceOnUse" color-interpolation-filters="sRGB">
<feFlood flood-opacity="0" result="BackgroundImageFix"/>
<feColorMatrix in="SourceAlpha" type="matrix" values="0 0 0 0 0 0 0 0 0 0 0 0 0 0 0 0 0 0 127 0" result="hardAlpha"/>
<feOffset dy="4"/>
<feGaussianBlur stdDeviation="2"/>
<feComposite in2="hardAlpha" operator="out"/>
<feColorMatrix type="matrix" values="0 0 0 0 0 0 0 0 0 0 0 0 0 0 0 0 0 0 0.25 0"/>
<feBlend mode="normal" in2="BackgroundImageFix" result="effect1_dropShadow_341_334"/>
<feBlend mode="normal" in="SourceGraphic" in2="effect1_dropShadow_341_334" result="shape"/>
</filter>
<filter id="filter1_d_341_334" x="34.0938" y="14.98" width="131.829" height="26.6899" filterUnits="userSpaceOnUse" color-interpolation-filters="sRGB">
<feFlood flood-opacity="0" result="BackgroundImageFix"/>
<feColorMatrix in="SourceAlpha" type="matrix" values="0 0 0 0 0 0 0 0 0 0 0 0 0 0 0 0 0 0 127 0" result="hardAlpha"/>
<feOffset dy="4"/>
<feGaussianBlur stdDeviation="2"/>
<feComposite in2="hardAlpha" operator="out"/>
<feColorMatrix type="matrix" values="0 0 0 0 0 0 0 0 0 0 0 0 0 0 0 0 0 0 0.25 0"/>
<feBlend mode="normal" in2="BackgroundImageFix" result="effect1_dropShadow_341_334"/>
<feBlend mode="normal" in="SourceGraphic" in2="effect1_dropShadow_341_334" result="shape"/>
</filter>
</defs>
</svg>
